<?xml version="1.0" standalone="no"?>
<!DOCTYPE svg PUBLIC "-//W3C//DTD SVG 20010904//EN"
 "http://www.w3.org/TR/2001/REC-SVG-20010904/DTD/svg10.dtd">
<svg version="1.0" xmlns="http://www.w3.org/2000/svg"
 width="349.000000pt" height="146.000000pt" viewBox="0 0 349.000000 146.000000"
 preserveAspectRatio="xMidYMid meet">
<metadata>
Created by potrace 1.15, written by Peter Selinger 2001-2017
</metadata>
<g transform="translate(0.000000,146.000000) scale(0.100000,-0.100000)"
fill="#000000" stroke="none">
<path d="M0 730 l0 -730 1745 0 1745 0 0 730 0 730 -1745 0 -1745 0 0 -730z
m1868 177 c26 -26 27 -33 32 -157 l5 -130 -43 0 c-29 0 -44 5 -48 15 -6 14 -8
14 -19 -1 -7 -10 -31 -18 -63 -22 -47 -4 -54 -2 -82 26 -17 18 -30 41 -30 56
0 65 47 104 135 113 44 5 55 9 55 24 0 21 -26 49 -45 49 -15 0 -45 -27 -45
-41 0 -5 -21 -9 -46 -9 -42 0 -45 1 -39 23 9 27 43 66 70 78 11 5 46 7 78 6
47 -3 63 -8 85 -30z m262 -7 c0 -36 -3 -40 -24 -40 -13 0 -34 -9 -47 -19 -22
-17 -24 -28 -27 -120 l-4 -101 -44 0 -44 0 0 155 0 155 45 0 c42 0 45 -2 45
-27 1 -26 1 -27 12 -8 15 29 39 45 65 45 20 0 23 -5 23 -40z m215 26 c33 -14
75 -66 75 -93 0 -9 -16 -13 -45 -13 -25 0 -45 5 -45 10 0 14 -38 50 -53 50
-68 0 -87 -172 -23 -201 29 -13 62 1 71 31 5 16 15 20 51 20 50 0 54 -9 24
-58 -27 -43 -80 -66 -143 -59 -84 8 -137 68 -137 156 0 125 113 203 225 157z
m323 -6 c76 -34 104 -139 61 -228 -28 -57 -87 -87 -161 -80 -88 9 -139 68
-139 162 0 77 31 131 91 155 40 16 102 12 148 -9z m351 5 c40 -20 51 -61 51
-191 l0 -114 -45 0 -45 0 0 99 c0 112 -9 146 -40 154 -57 15 -80 -30 -80 -158
l0 -95 -45 0 -45 0 0 155 0 155 45 0 c40 0 45 -3 45 -22 1 -21 1 -21 11 -5 21
37 98 48 148 22z"/>
<path d="M2549 861 c-21 -17 -24 -28 -24 -86 0 -58 3 -69 24 -86 30 -25 44
-24 77 4 23 21 27 31 27 82 0 51 -4 61 -27 82 -33 28 -47 29 -77 4z"/>
</g>
</svg>
